<svg height="512" viewBox="0 0 64 64" width="512" xmlns="http://www.w3.org/2000/svg"><g id="Play_button" data-name="Play button"><path d="m27 20.029 16.971 11.971-16.971 11.971z" fill="#57a4ff"/><g fill="#004fac"><path d="m32 1a31 31 0 1 0 31 31 31.036 31.036 0 0 0 -31-31zm0 60a29 29 0 1 1 29-29 29.032 29.032 0 0 1 -29 29z"/><path d="m33 6a1 1 0 0 0 -1-1 26.98 26.98 0 0 0 -23.81 14.258 1 1 0 0 0 1.763.945 24.983 24.983 0 0 1 22.047-13.203 1 1 0 0 0 1-1z"/><path d="m7.9 22.175a1 1 0 0 0 -1.281.6 26.881 26.881 0 0 0 -.9 3 1 1 0 0 0 .743 1.2.965.965 0 0 0 .238.025 1 1 0 0 0 .972-.77 24.9 24.9 0 0 1 .83-2.777 1 1 0 0 0 -.602-1.278z"/><path d="m44.547 31.183-16.971-11.971a1 1 0 0 0 -1.576.817v23.942a1 1 0 0 0 1.576.817l16.971-11.971a1 1 0 0 0 0-1.634zm-16.547 10.859v-20.084l14.236 10.042z"/></g></g></svg>